<?xml version="1.0" encoding="UTF-8"?>
<svg xmlns="http://www.w3.org/2000/svg" viewBox="0 0 360 140">
  <defs>
    <linearGradient id="sunGlow" x1="0%" y1="0%" x2="0%" y2="100%">
      <stop offset="0%" stop-color="#fde68a"/>
      <stop offset="100%" stop-color="#f59e0b"/>
    </linearGradient>
    <linearGradient id="fieldGradient" x1="0%" y1="0%" x2="100%" y2="0%">
      <stop offset="0%" stop-color="#4ade80"/>
      <stop offset="100%" stop-color="#15803d"/>
    </linearGradient>
    <linearGradient id="overallGradient" x1="0%" y1="0%" x2="100%" y2="0%">
      <stop offset="0%" stop-color="#c084fc"/>
      <stop offset="100%" stop-color="#2563eb"/>
    </linearGradient>
    <style>
      .wordmark {
        font-family: "Poppins","Segoe UI","Helvetica Neue",Arial,sans-serif;
        font-size: 28px;
        font-weight: 700;
        letter-spacing: 0.2em;
        fill: #064e3b;
      }
      .tagline {
        font-family: "Poppins","Segoe UI","Helvetica Neue",Arial,sans-serif;
        font-size: 12px;
        font-weight: 600;
        letter-spacing: 0.35em;
        fill: #1e293b;
      }
    </style>
  </defs>
  <g transform="translate(10 10)">
    <circle cx="45" cy="50" r="45" fill="white" stroke="#86efac" stroke-width="3"/>
    <circle cx="38" cy="32" r="15" fill="url(#sunGlow)"/>
    <path d="M3 77c15-20 56-33 90-25-22 7-36 18-40 24 16-6 34-7 54 4-33 10-60 10-104-3z" fill="url(#fieldGradient)" opacity="0.85"/>
    <g transform="translate(22 32)">
      <ellipse cx="23" cy="2" rx="20" ry="5" fill="#facc15"/>
      <path d="M8 0h30c2 0 3 1 3 3v4H5V3c0-2 1-3 3-3z" fill="#f97316"/>
      <circle cx="23" cy="14" r="9" fill="#fdebc8" stroke="#92400e" stroke-width="1.1"/>
      <path d="M14 39c0-11 4-17 9-19 5 2 9 8 9 19v13H14V39z" fill="url(#overallGradient)"/>
      <path d="M23 26c-4 0-7-1-9-3l-5 11c-1 2 1 4 3 5l7 1" fill="none" stroke="#14532d" stroke-width="2.6" stroke-linecap="round"/>
      <path d="M23 26c4 0 7-1 9-3l5 11c1 2-1 4-3 5l-7 1" fill="none" stroke="#14532d" stroke-width="2.6" stroke-linecap="round"/>
      <path d="M20 52h6l5 11c1 1 0 3-2 3h-12c-2 0-3-2-2-3l5-11z" fill="#451a03"/>
      <circle cx="19" cy="12" r="1.6" fill="#0f172a"/>
      <circle cx="27" cy="12" r="1.6" fill="#0f172a"/>
    </g>
  </g>
  <g transform="translate(150 65)">
    <text class="wordmark" x="0" y="0">SL FARMER</text>
    <text class="tagline" x="3" y="24">ORGANIC HARVEST</text>
  </g>
</svg>
